# xmcd
#
# Track frame offsets:
#	150
#	16950
#	35159
#
# Disc length: 665 seconds
#
# Revision: 0
# Processed by: cddbd v1.5.2PL0 Copyright (c) Steve Scherf et al.
# Submitted via: audiograbber 1.83.01
#
DISCID=1e029703
DTITLE=2feelgr8 - Dicke Fritten
DYEAR=2007
DGENRE=Soulska
TTITLE0=James Bond
TTITLE1=Take me on a trip
TTITLE2=Only on Fridays
EXTD=
EXTT0=
EXTT1=
EXTT2=
PLAYORDER=
